HIERARCHY
ROOT Hips
{
	OFFSET 0.000000 1.471914 24.280096
	CHANNELS 6 Xposition Yposition Zposition Xrotation Yrotation Zrotation
	JOINT Spine
	{
		OFFSET 0.000000 0.900110 1.860670
		CHANNELS 6 Xposition Yposition Zposition Xrotation Yrotation Zrotation
		JOINT Spine1
		{
			OFFSET 0.000000 0.400320 2.270309
			CHANNELS 6 Xposition Yposition Zposition Xrotation Yrotation Zrotation
			JOINT Spine2
			{
				OFFSET 0.000000 0.200920 2.296560
				CHANNELS 6 Xposition Yposition Zposition Xrotation Yrotation Zrotation
				JOINT Spine3
				{
					OFFSET 0.000000 0.000000 2.305330
					CHANNELS 6 Xposition Yposition Zposition Xrotation Yrotation Zrotation
					JOINT Neck
					{
						OFFSET 0.000000 -0.864490 6.051487
						CHANNELS 6 Xposition Yposition Zposition Xrotation Yrotation Zrotation
						JOINT Head
						{
							OFFSET 0.000000 -0.550429 3.121674
							CHANNELS 6 Xposition Yposition Zposition Xrotation Yrotation Zrotation
							End Site
							{
								OFFSET 0.000000 0.000000 3.731750
							}
						}
					}
					JOINT RightShoulder
					{
						OFFSET -0.788280 -1.313800 4.256718
						CHANNELS 6 Xposition Yposition Zposition Xrotation Yrotation Zrotation
						JOINT RightArm
						{
							OFFSET -3.915130 0.000000 0.000000
							CHANNELS 6 Xposition Yposition Zposition Xrotation Yrotation Zrotation
							JOINT RightForeArm
							{
								OFFSET -6.914910 0.000000 0.000000
								CHANNELS 6 Xposition Yposition Zposition Xrotation Yrotation Zrotation
								JOINT RightHand
								{
									OFFSET -6.096219 0.000000 0.000000
									CHANNELS 6 Xposition Yposition Zposition Xrotation Yrotation Zrotation
									JOINT RightHandEnd
									{
										OFFSET -1.749950 0.000000 0.000000
										CHANNELS 6 Xposition Yposition Zposition Xrotation Yrotation Zrotation
										End Site
										{
											OFFSET -1.749950 0.000000 0.000000
										}
									}
									JOINT RightHandThumb1
									{
										OFFSET -0.699980 -1.166630 -0.466648
										CHANNELS 6 Xposition Yposition Zposition Xrotation Yrotation Zrotation
										End Site
										{
											OFFSET -1.690319 -0.452920 0.000000
										}
									}
								}
							}
						}
					}
					JOINT LeftShoulder
					{
						OFFSET 0.788280 -1.313800 4.256718
						CHANNELS 6 Xposition Yposition Zposition Xrotation Yrotation Zrotation
						JOINT LeftArm
						{
							OFFSET 3.915130 0.000000 0.000000
							CHANNELS 6 Xposition Yposition Zposition Xrotation Yrotation Zrotation
							JOINT LeftForeArm
							{
								OFFSET 6.914910 0.000000 0.000000
								CHANNELS 6 Xposition Yposition Zposition Xrotation Yrotation Zrotation
								JOINT LeftHand
								{
									OFFSET 6.096219 0.000000 0.000000
									CHANNELS 6 Xposition Yposition Zposition Xrotation Yrotation Zrotation
									JOINT LeftHandEnd
									{
										OFFSET 1.749950 0.000000 0.000000
										CHANNELS 6 Xposition Yposition Zposition Xrotation Yrotation Zrotation
										End Site
										{
											OFFSET 1.749950 0.000000 0.000000
										}
									}
									JOINT LeftHandThumb1
									{
										OFFSET 0.699980 -1.166630 -0.466648
										CHANNELS 6 Xposition Yposition Zposition Xrotation Yrotation Zrotation
										End Site
										{
											OFFSET 1.690319 -0.452920 0.000000
										}
									}
								}
							}
						}
					}
				}
			}
		}
	}
	JOINT RightUpLeg
	{
		OFFSET -2.338570 -0.252550 -0.551512
		CHANNELS 6 Xposition Yposition Zposition Xrotation Yrotation Zrotation
		JOINT RightLeg
		{
			OFFSET 0.000000 0.000000 -10.744959
			CHANNELS 6 Xposition Yposition Zposition Xrotation Yrotation Zrotation
			JOINT RightFoot
			{
				OFFSET 0.000000 -0.000001 -10.930849
				CHANNELS 6 Xposition Yposition Zposition Xrotation Yrotation Zrotation
				JOINT RightToeBase
				{
					OFFSET 0.000000 -4.087269 -1.487650
					CHANNELS 6 Xposition Yposition Zposition Xrotation Yrotation Zrotation
					End Site
					{
						OFFSET 0.000000 -1.891870 0.000000
					}
				}
			}
		}
	}
	JOINT LeftUpLeg
	{
		OFFSET 2.338570 -0.252550 -0.551512
		CHANNELS 6 Xposition Yposition Zposition Xrotation Yrotation Zrotation
		JOINT LeftLeg
		{
			OFFSET 0.000000 0.000000 -10.744959
			CHANNELS 6 Xposition Yposition Zposition Xrotation Yrotation Zrotation
			JOINT LeftFoot
			{
				OFFSET 0.000000 -0.000001 -10.930849
				CHANNELS 6 Xposition Yposition Zposition Xrotation Yrotation Zrotation
				JOINT LeftToeBase
				{
					OFFSET 0.000000 -4.087269 -1.487650
					CHANNELS 6 Xposition Yposition Zposition Xrotation Yrotation Zrotation
					End Site
					{
						OFFSET 0.000000 -1.891870 0.000000
					}
				}
			}
		}
	}
}
MOTION
Frames: 5
Frame Time: 0.041667
0.000008 26.645884 40.812096 -1.917327 0.936682 -8.392458 0.000005 0.900086 1.860699 14.865896 -0.499610 -0.824958 -0.000015 0.400282 2.270294 0.000006 0.000001 0.000011 0.000006 0.200880 2.296553 -0.000003 -0.000002 0.000007 0.000024 0.000038 2.305346 -0.000054 0.000007 -5.160047 -0.000017 -0.864435 6.051374 0.488526 0.696356 -181.214030 0.000040 -0.550411 3.121685 -0.000003 -0.000001 -0.000006 -0.788273 -1.313715 4.256848 -134.232765 51.716338 -45.709077 -3.915143 -0.000021 -0.000019 0.000000 -0.000008 0.000001 -6.914850 -0.000003 0.000033 -0.000058 -0.000050 -82.790157 -6.096193 -0.000005 0.000013 -0.000021 -0.000002 -0.000005 -1.749899 -0.000006 0.000030 -0.000002 0.000003 -0.000001 -0.699956 -1.166610 -0.466646 -0.000034 -0.000012 -0.000033 0.788249 -1.313778 4.256782 -128.749681 -56.767072 46.321469 3.915235 -0.000011 -0.000031 -0.000001 0.000003 -0.000000 6.914937 -0.000083 0.000012 -0.000123 0.000079 110.996250 6.096270 0.000173 -0.000029 0.000010 -0.000015 0.000019 1.750006 0.000027 0.000053 -0.000009 -0.000008 -0.000003 0.700005 -1.166589 -0.466638 0.000052 -0.000009 -0.000043 -2.338583 -0.252530 -0.551465 5.459919 -2.306859 -0.302399 0.000016 -0.000009 -10.744950 10.422287 2.100917 -0.990838 -0.000029 0.000072 -10.930840 0.000051 -0.000005 0.000003 -0.000035 -4.087244 -1.487614 0.000004 0.000001 -0.000003 2.338603 -0.252519 -0.551517 13.984263 5.775402 -0.784562 -0.000012 -0.000014 -10.744930 10.863084 2.137306 0.497892 0.000025 -0.000015 -10.930866 0.000020 -0.000004 0.000001 -0.000059 -4.087209 -1.487656 0.000004 0.000001 -0.000008 
0.000016 26.645887 40.812096 -1.060072 0.446354 -6.365293 0.000005 0.900081 1.860707 13.472139 -0.027911 -0.584805 -0.000015 0.400282 2.270300 0.000006 0.000001 0.000011 0.000007 0.200885 2.296556 0.000001 -0.000002 0.000007 0.000025 0.000037 2.305334 -0.000054 0.000008 -5.370331 -0.000018 -0.864435 6.051378 0.360996 0.581410 -182.102515 0.000041 -0.550409 3.121670 -0.000005 -0.000001 -0.000007 -0.788274 -1.313712 4.256850 -132.911397 52.359691 -46.590025 -3.915140 -0.000020 -0.000023 0.000000 -0.000006 0.000004 -6.914840 -0.000008 0.000034 -0.000056 -0.000053 -81.871271 -6.096192 -0.000013 0.000019 -0.000020 0.000000 -0.000002 -1.749896 -0.000004 0.000031 -0.000002 0.000004 0.000005 -0.699957 -1.166608 -0.466646 -0.000030 -0.000009 -0.000029 0.788248 -1.313777 4.256785 -125.806101 -54.859291 50.283706 3.915233 -0.000014 -0.000023 -0.000001 0.000003 -0.000001 6.914950 -0.000082 0.000013 -0.000123 0.000075 113.617383 6.096273 0.000163 -0.000030 0.000010 -0.000021 0.000020 1.750008 0.000026 0.000060 -0.000010 -0.000011 -0.000001 0.700004 -1.166584 -0.466638 0.000048 -0.000014 -0.000041 -2.338584 -0.252536 -0.551456 4.866354 -3.021763 -0.209408 0.000015 -0.000009 -10.744946 9.322569 2.231288 -0.890036 -0.000029 0.000076 -10.930841 0.000050 -0.000006 0.000002 -0.000034 -4.087235 -1.487616 0.000001 0.000001 -0.000002 2.338602 -0.252525 -0.551504 13.511849 5.179240 -0.594987 -0.000012 -0.000014 -10.744930 12.079171 1.693892 0.569273 0.000026 -0.000012 -10.930864 0.000024 -0.000004 0.000002 -0.000059 -4.087205 -1.487655 -0.000000 -0.000001 -0.000007 
-0.000001 26.645901 40.812103 -1.923821 0.258894 -3.623791 0.000005 0.900082 1.860705 13.833827 0.229814 -0.541588 -0.000015 0.400282 2.270296 0.000005 0.000001 0.000011 0.000007 0.200877 2.296551 0.000000 -0.000002 0.000006 0.000025 0.000039 2.305342 -0.000054 0.000008 -5.234125 -0.000018 -0.864429 6.051382 0.650418 0.643500 -183.158722 0.000040 -0.550404 3.121674 -0.000005 -0.000001 -0.000005 -0.788272 -1.313704 4.256847 -132.517295 51.109025 -46.637990 -3.915145 -0.000023 -0.000027 -0.000000 -0.000008 0.000003 -6.914849 0.000001 0.000030 -0.000052 -0.000052 -80.095661 -6.096188 -0.000007 0.000016 -0.000023 -0.000005 -0.000005 -1.749896 -0.000005 0.000025 -0.000002 0.000008 0.000000 -0.699960 -1.166611 -0.466652 -0.000034 -0.000008 -0.000029 0.788247 -1.313772 4.256786 -123.081921 -52.557384 52.704342 3.915231 -0.000009 -0.000027 -0.000002 0.000005 0.000000 6.914938 -0.000078 0.000019 -0.000114 0.000075 108.010528 6.096268 0.000168 -0.000032 0.000006 -0.000021 0.000020 1.750007 0.000030 0.000061 -0.000009 -0.000007 -0.000003 0.700006 -1.166584 -0.466644 0.000048 -0.000011 -0.000043 -2.338584 -0.252535 -0.551456 5.487630 -3.764906 -0.212860 0.000015 -0.000010 -10.744941 8.600975 2.208786 -0.896270 -0.000028 0.000077 -10.930841 0.000053 -0.000006 0.000002 -0.000034 -4.087242 -1.487617 0.000002 0.000001 -0.000002 2.338603 -0.252522 -0.551508 14.527466 4.142675 -0.577221 -0.000011 -0.000009 -10.744932 13.858333 1.652792 0.461679 0.000025 -0.000017 -10.930866 0.000027 -0.000005 0.000003 -0.000059 -4.087208 -1.487658 0.000002 0.000001 -0.000008 
0.000011 26.645903 40.812103 -2.108241 -0.742146 -2.340307 0.000005 0.900086 1.860708 14.146959 1.562018 -0.987434 -0.000015 0.400286 2.270303 0.000006 0.000001 0.000011 0.000006 0.200881 2.296551 -0.000002 -0.000002 0.000006 0.000024 0.000039 2.305338 -0.000052 0.000006 -4.691042 -0.000018 -0.864433 6.051375 0.839605 -0.125644 -182.836733 0.000041 -0.550407 3.121677 -0.000004 -0.000001 -0.000004 -0.788272 -1.313706 4.256850 -130.933811 50.871758 -47.439813 -3.915146 -0.000022 -0.000024 -0.000000 -0.000005 0.000003 -6.914846 -0.000003 0.000033 -0.000055 -0.000052 -81.622489 -6.096186 -0.000007 0.000016 -0.000022 -0.000003 -0.000004 -1.749898 -0.000015 0.000036 -0.000003 0.000007 0.000000 -0.699959 -1.166615 -0.466642 -0.000030 -0.000007 -0.000033 0.788248 -1.313775 4.256783 -127.547608 -55.641914 47.775879 3.915235 -0.000016 -0.000027 0.000003 0.000003 0.000001 6.914937 -0.000080 0.000016 -0.000100 0.000074 104.591739 6.096269 0.000172 -0.000034 0.000011 -0.000016 0.000017 1.750003 0.000027 0.000054 -0.000008 -0.000016 -0.000003 0.700004 -1.166584 -0.466642 0.000048 -0.000014 -0.000041 -2.338584 -0.252531 -0.551454 5.969645 -3.072602 -0.417612 0.000015 -0.000009 -10.744950 8.057905 1.692418 -0.991834 -0.000029 0.000075 -10.930840 0.000051 -0.000005 0.000003 -0.000034 -4.087238 -1.487616 0.000004 0.000001 -0.000002 2.338603 -0.252520 -0.551505 13.774060 4.624298 -0.970184 -0.000011 -0.000010 -10.744937 15.720705 1.554237 0.182738 0.000026 -0.000012 -10.930873 0.000026 -0.000005 0.000003 -0.000059 -4.087205 -1.487653 0.000002 0.000000 -0.000008 
0.000010 26.645918 40.812115 -2.591623 -1.808245 2.150783 0.000005 0.900083 1.860704 14.731183 2.280141 -1.172889 -0.000015 0.400286 2.270298 0.000005 0.000001 0.000011 0.000007 0.200878 2.296541 -0.000002 -0.000002 0.000006 0.000025 0.000036 2.305342 -0.000053 0.000005 -3.462975 -0.000018 -0.864430 6.051385 1.254446 -1.344695 -184.985182 0.000041 -0.550409 3.121673 -0.000006 -0.000002 -0.000005 -0.788273 -1.313708 4.256854 -131.448193 51.101501 -47.305849 -3.915148 -0.000020 -0.000023 -0.000001 -0.000006 0.000002 -6.914850 -0.000004 0.000033 -0.000064 -0.000054 -84.294349 -6.096189 -0.000005 0.000020 -0.000023 0.000002 -0.000002 -1.749899 -0.000007 0.000034 -0.000006 0.000005 0.000001 -0.699959 -1.166612 -0.466649 -0.000032 -0.000009 -0.000032 0.788248 -1.313774 4.256796 -133.310772 -58.582867 42.779220 3.915233 -0.000007 -0.000027 -0.000006 0.000003 -0.000001 6.914939 -0.000073 0.000013 -0.000096 0.000069 100.803907 6.096269 0.000179 -0.000031 0.000011 -0.000019 0.000024 1.750007 0.000022 0.000055 -0.000010 -0.000010 -0.000002 0.700005 -1.166595 -0.466641 0.000047 -0.000012 -0.000044 -2.338584 -0.252533 -0.551465 6.861326 -2.714139 -0.549386 0.000015 -0.000009 -10.744948 7.724448 0.794212 -0.980385 -0.000028 0.000079 -10.930839 0.000048 -0.000005 0.000003 -0.000035 -4.087237 -1.487618 0.000006 0.000000 -0.000002 2.338602 -0.252521 -0.551517 13.302830 3.706184 -1.069319 -0.000011 -0.000015 -10.744934 17.671887 2.307366 -0.246128 0.000025 -0.000010 -10.930867 0.000024 -0.000005 0.000002 -0.000059 -4.087208 -1.487657 -0.000002 0.000000 -0.000008 
